<?xml version="1.0" standalone="no"?>
<!DOCTYPE svg PUBLIC "-//W3C//DTD SVG 20010904//EN"
 "http://www.w3.org/TR/2001/REC-SVG-20010904/DTD/svg10.dtd">
<svg version="1.0" xmlns="http://www.w3.org/2000/svg"
 width="720.000000pt" height="720.000000pt" viewBox="0 0 720.000000 720.000000"
 preserveAspectRatio="xMidYMid meet">
<metadata>
Created by potrace 1.11, written by Peter Selinger 2001-2013
</metadata>
<g transform="translate(0.000000,720.000000) scale(0.100000,-0.100000)"
fill="#000000" stroke="none">
<path d="M3320 6769 c-304 -29 -662 -119 -950 -241 -533 -225 -1022 -617
-1357 -1088 -231 -324 -397 -683 -498 -1080 -59 -229 -43 -267 54 -125 68 100
253 285 348 348 225 149 485 244 771 282 156 21 460 21 611 0 386 -54 708
-201 939 -428 115 -113 165 -182 233 -322 64 -130 93 -227 110 -369 6 -50 16
-97 21 -103 15 -18 70 -16 163 6 348 84 602 290 780 633 161 311 238 707 206
1063 -41 450 -200 834 -451 1085 -188 189 -410 295 -673 321 -62 6 -122 15
-135 20 -26 10 -38 10 -172 -2z"/>
<path d="M4143 6723 c-29 -11 -9 -41 59 -88 101 -70 241 -213 314 -320 223
-327 327 -735 311 -1220 -16 -484 -142 -856 -389 -1145 -195 -228 -431 -358
-708 -391 -122 -15 -133 -21 -127 -67 30 -228 84 -375 195 -532 329 -467 1084
-712 1772 -574 228 45 394 106 565 205 338 196 534 474 591 839 9 55 18 201
21 345 5 208 3 267 -11 350 -92 545 -344 1087 -704 1515 -43 52 -146 160 -228
240 -404 394 -905 672 -1446 804 -162 39 -198 46 -215 39z"/>
<path d="M1737 4795 c-363 -50 -692 -198 -919 -414 -118 -111 -177 -192 -249
-336 -55 -111 -109 -280 -109 -339 0 -12 -4 -26 -9 -31 -6 -6 -15 -58 -21
-116 -8 -84 -7 -135 5 -251 51 -483 192 -911 439 -1326 143 -240 297 -433 522
-652 333 -325 732 -571 1174 -725 139 -48 328 -98 346 -91 30 12 11 38 -75
101 -353 259 -562 679 -603 1212 -39 508 105 1004 389 1346 191 229 498 397
773 423 87 8 110 24 110 74 0 150 -102 415 -220 571 -263 349 -776 572 -1308
568 -81 -1 -191 -7 -245 -14z"/>
<path d="M3390 3514 c-279 -60 -528 -204 -687 -397 -227 -274 -359 -612 -393
-1010 -25 -290 42 -639 175 -912 188 -386 490 -629 884 -710 36 -8 84 -18 106
-24 22 -6 60 -11 84 -11 25 0 59 -5 77 -12 26 -9 69 -9 190 0 750 59 1445 373
1978 892 82 80 185 188 228 240 315 375 545 830 663 1313 43 178 17 194 -79
49 -225 -342 -636 -567 -1156 -633 -122 -16 -438 -16 -560 0 -333 42 -640 153
-863 312 -117 83 -270 244 -339 355 -93 152 -138 286 -163 486 -10 80 -28 88
-145 62z"/>
</g>
</svg>
